<?xml version="1.0" encoding="UTF-8"?>
<svg width="80px" height="80px" viewBox="0 0 80 80" version="1.1" xmlns="http://www.w3.org/2000/svg" xmlns:xlink="http://www.w3.org/1999/xlink">
    <!-- Generator: Sketch 55.2 (78181) - https://sketchapp.com -->
    <title>Global header</title>
    <desc>Created with Sketch.</desc>
    <g id="🌱-Atoms:-Vodacom-logos" stroke="none" stroke-width="1" fill="none" fill-rule="evenodd">
        <g id="🌱-Atoms/Logos/Vodacom/Red-on-white">
            <g id="Global-header">
                <path d="M79.8495775,39.9247887 C79.8495775,61.9743662 61.9746479,79.8490141 39.9247887,79.8490141 C17.8749296,79.8490141 0,61.9743662 0,39.9247887 C0,17.8746479 17.8749296,0 39.9247887,0 C61.9746479,0 79.8495775,17.8746479 79.8495775,39.9247887" id="Fill-1" fill="#FFFFFF"></path>
                <path d="M40.0319846,62.6666921 C29.0624072,62.7029247 17.6500128,53.3406712 17.6,38.3074318 C17.5669142,28.3657416 22.9305762,18.7961642 29.7866325,13.1186994 C36.4739565,7.58123458 45.6353649,4.02743176 53.9440973,4 C55.0136748,3.99644585 56.132548,4.08574162 56.8170551,4.31729092 C49.5522663,5.82405148 43.7702945,12.5851782 43.7959283,20.2556008 C43.7967734,20.5091219 43.8195903,20.7801078 43.844379,20.906305 C56.0012804,23.8671501 61.5201537,31.2023613 61.5540595,41.3519388 C61.5871959,51.5009529 53.5745199,62.6215163 40.0319846,62.6666921" id="Fill-2" fill="#E60000"></path>
            </g>
        </g>
    </g>
</svg>